<?xml version="1.0" encoding="UTF-8"?>
<svg id="Layer_1" data-name="Layer 1" xmlns="http://www.w3.org/2000/svg" viewBox="0 0 100 100">
  <defs>
    <style>
      .cls-1, .cls-2, .cls-3 {
        stroke-width: 0px;
      }

      .cls-1, .cls-4, .cls-5 {
        fill: #9b9a9a;
      }

      .cls-6 {
        fill: none;
      }

      .cls-6, .cls-4 {
        stroke-linecap: round;
        stroke-linejoin: round;
        stroke-width: 4px;
      }

      .cls-6, .cls-4, .cls-5 {
        stroke: #2e222f;
      }

      .cls-2 {
        fill: silver;
      }

      .cls-5 {
        stroke-miterlimit: 10;
      }

      .cls-3 {
        fill: #848f8e;
      }
    </style>
  </defs>
  <g>
    <ellipse class="cls-1" cx="48.69" cy="81.58" rx="8.96" ry="5.69"/>
    <polyline class="cls-5" points="55.32 78.32 57.97 74.06 59.96 80.44"/>
    <g>
      <ellipse class="cls-1" cx="50.29" cy="78.56" rx="13.96" ry="7.72"/>
      <ellipse class="cls-1" cx="39.25" cy="75.93" rx="6.97" ry="7.23"/>
      <ellipse class="cls-3" cx="61.45" cy="74.22" rx="3.81" ry="9.29"/>
      <ellipse class="cls-2" cx="48.85" cy="64.99" rx="10.34" ry="6.24"/>
      <polygon class="cls-6" points="42.09 69.93 39.02 86.27 61.61 86.27 56.61 69.93 42.09 69.93"/>
      <polyline class="cls-6" points="42.09 69.93 37.09 66.27 30.57 79.83 39.02 86.27"/>
      <polyline class="cls-6" points="37.09 66.27 46.61 57.61 59.47 61.94 56.61 69.93"/>
      <polyline class="cls-6" points="59.47 61.94 66.8 74.38 61.61 86.27"/>
    </g>
    <g>
      <ellipse class="cls-1" cx="32.61" cy="85.93" rx="8.96" ry="5.69"/>
      <polyline class="cls-4" points="22.89 88.51 26.58 80.29 32.23 76.29 41.57 78.29 39.19 82.73 30.03 82.07 39.19 82.73 40.73 91.62 27.77 91.62 30.03 82.07 26.58 80.29 22.89 88.51 27.77 91.62"/>
      <polygon class="cls-5" points="41.89 78.41 43.88 84.79 41.08 91.57 39.24 82.67 41.89 78.41"/>
      <polyline class="cls-4" points="41.57 78.29 45.15 84.99 41.08 91.57"/>
    </g>
  </g>
  <g>
    <ellipse class="cls-1" cx="67.11" cy="82.41" rx="6.83" ry="5.69"/>
    <polyline class="cls-4" points="59.7 84.99 62.51 76.77 66.82 72.77 73.95 74.77 72.13 79.22 65.14 78.55 72.13 79.22 73.3 88.11 63.42 88.11 65.14 78.55 62.51 76.77 59.7 84.99 63.42 88.11"/>
    <polygon class="cls-5" points="74.19 74.9 75.71 81.27 73.57 88.05 72.17 79.15 74.19 74.9"/>
    <polyline class="cls-4" points="73.95 74.77 76.68 81.47 73.57 88.05"/>
  </g>
</svg>